<svg width="334" height="64" viewBox="0 0 334 64" fill="none" xmlns="http://www.w3.org/2000/svg">
<path d="M207.886 51.5849C196.742 51.5849 187.896 42.5088 187.896 31.4797C187.896 20.4506 196.799 11.3745 207.886 11.3745C213.228 11.3745 218.34 13.6148 222.017 17.4635C222.993 18.44 222.936 20.0485 221.959 20.9676C220.925 21.9441 219.374 21.9441 218.398 20.9101C215.641 17.9805 211.907 16.3721 207.886 16.3721C199.671 16.3721 193.18 23.2079 193.18 31.4797C193.18 39.809 199.671 46.5873 207.886 46.5873C211.907 46.5873 215.641 45.0363 218.398 42.1067C219.374 41.0727 220.925 41.0727 221.959 42.0493C222.936 42.9684 222.993 44.5768 222.017 45.5533C218.34 49.402 213.228 51.5849 207.886 51.5849Z" fill="#1F1F1F"/>
<path d="M243.769 22.2888C251.811 22.2888 258.417 28.8948 258.417 36.9369C258.417 45.0364 251.811 51.5849 243.769 51.5849C235.67 51.5849 229.121 45.0364 229.121 36.9369C229.121 28.8948 235.67 22.2888 243.769 22.2888ZM243.769 46.7023C248.996 46.7023 253.247 42.3366 253.247 36.9369C253.247 31.5946 248.996 27.1715 243.769 27.1715C238.484 27.1715 234.291 31.5946 234.291 36.9369C234.291 42.3366 238.484 46.7023 243.769 46.7023Z" fill="#1F1F1F"/>
<path d="M267.905 51.0104C266.469 51.0104 265.32 49.8615 265.32 48.4255V13.385C265.32 12.0064 266.469 10.8 267.905 10.8C269.284 10.8 270.49 12.0064 270.49 13.385V48.4255C270.49 49.8615 269.284 51.0104 267.905 51.0104Z" fill="#1F1F1F"/>
<path d="M291.969 22.2888C300.011 22.2888 306.617 28.8948 306.617 36.9369C306.617 45.0364 300.011 51.5849 291.969 51.5849C283.87 51.5849 277.321 45.0364 277.321 36.9369C277.321 28.8948 283.87 22.2888 291.969 22.2888ZM291.969 46.7023C297.196 46.7023 301.447 42.3366 301.447 36.9369C301.447 31.5946 297.196 27.1715 291.969 27.1715C286.684 27.1715 282.491 31.5946 282.491 36.9369C282.491 42.3366 286.684 46.7023 291.969 46.7023Z" fill="#1F1F1F"/>
<path d="M327.184 22.4037C329.137 22.2888 330.631 24.1844 329.999 26.08C329.539 27.4012 328.275 28.0331 327.184 28.0331C327.069 28.0331 326.897 27.9757 326.724 27.9757C322.014 27.9757 318.165 31.9967 318.165 36.8794V48.4255C318.165 49.8616 316.959 51.0105 315.58 51.0105C314.144 51.0105 312.995 49.8616 312.995 48.4255V25.4482C312.995 24.0695 314.144 22.8632 315.58 22.8632C316.959 22.8632 318.165 24.0695 318.165 25.4482V27.3438C320.693 23.5525 324.369 22.576 327.184 22.4037Z" fill="#1F1F1F"/>
<path d="M97.1766 11.9595C98.1228 11.9595 98.8916 12.7062 98.8916 13.6253V49.4126C98.8916 50.3316 98.1228 51.021 97.1766 51.021C96.2304 51.021 95.5207 50.3316 95.5207 49.4126V33.6731H67.3709V49.4126C67.3709 50.3316 66.6021 51.021 65.6559 51.021C64.7097 51.021 64 50.3316 64 49.4126V13.6253C64 12.7637 64.7097 11.9595 65.6559 11.9595C66.6021 11.9595 67.3709 12.7062 67.3709 13.6253V30.5711H95.5207V13.6253C95.5207 12.7637 96.2304 11.9595 97.1766 11.9595Z" fill="#1F1F1F"/>
<path d="M118.522 22.5864C126.438 22.6439 132.807 29.135 132.807 37.0047V37.7515C132.807 38.6131 132.093 39.3025 131.259 39.3025H107.629C108.581 44.5872 113.045 48.6083 118.76 48.6083C121.855 48.6083 125.664 47.4594 129.593 45.5063C130.366 45.1617 131.319 45.4489 131.676 46.1957C132.093 46.9424 131.795 47.8615 131.021 48.2062C126.498 50.4465 122.152 51.5953 118.76 51.5953C110.486 51.5953 104.177 45.1617 104.177 37.177C104.177 29.0775 110.546 22.5864 118.522 22.5864ZM107.51 36.258H129.533C129.176 30.4562 124.414 25.6309 118.522 25.6309C112.569 25.6309 107.927 30.4562 107.51 36.258Z" fill="#1F1F1F"/>
<path d="M150.934 18.8528C149.499 18.8528 148.423 17.9337 148.423 16.7848C148.423 15.636 149.499 14.6594 150.934 14.6594C152.297 14.6594 153.444 15.636 153.444 16.7848C153.444 17.9337 152.297 18.8528 150.934 18.8528ZM150.862 51.0211C149.786 51.0211 148.925 50.3318 148.925 49.4701V24.7695C148.925 23.9078 149.786 23.161 150.862 23.161C151.938 23.161 152.871 23.8504 152.871 24.7695V49.4701C152.871 50.3318 151.938 51.0211 150.862 51.0211Z" fill="#1F1F1F"/>
<path d="M172.272 37.1197L182.098 48.4935C182.697 49.1254 182.577 50.1594 181.858 50.6764C181.558 50.9062 181.199 51.021 180.84 51.021C180.36 51.021 179.881 50.8487 179.581 50.4466L170.355 39.6473L161.128 50.4466C160.828 50.8487 160.349 51.021 159.87 51.021C159.51 51.021 159.151 50.9062 158.851 50.6764C158.132 50.1594 158.012 49.1254 158.612 48.4935L168.497 37.1197L158.612 25.746C158.012 25.1141 158.132 24.0801 158.851 23.5631C159.51 22.9887 160.589 23.1036 161.128 23.7929L170.355 34.5922L179.581 23.7929C180.121 23.1036 181.199 22.9887 181.858 23.5631C182.577 24.0801 182.697 25.1141 182.098 25.746L172.272 37.1197Z" fill="#1F1F1F"/>
<path d="M140.242 51.0209C139.107 51.0209 138.2 50.3316 138.2 49.4699V12.419C138.2 11.5573 139.107 10.8105 140.242 10.8105C141.376 10.8105 142.359 11.4999 142.359 12.419V49.4699C142.359 50.3316 141.376 51.0209 140.242 51.0209Z" fill="#1F1F1F"/>
<path d="M2 39.9621C2 39.9621 5.29374 38.0031 9.29599 37.7961C15.908 37.454 26.168 42.6981 34.034 38.5941C41.9 34.4901 40.304 24.4581 40.304 24.4581M55.0986 17.4169C55.0986 17.4169 51.8049 19.3759 47.8026 19.583C41.1906 19.925 30.9306 14.6809 23.0646 18.7849C15.1986 22.8889 16.7946 32.9209 16.7946 32.9209M39.931 2C39.931 2 38.9284 3.48196 38.2536 6.33196C37.5787 9.18196 38.2536 12.1521 38.2536 12.1521M17.4336 55.4721C17.4336 55.4721 18.4362 53.9901 19.111 51.1401C19.7858 48.2901 19.111 45.32 19.111 45.32" stroke="#1F1F1F" stroke-width="3.192" stroke-linecap="round"/>
</svg>
