<svg width="254" height="64" viewBox="0 0 254 64" fill="none" xmlns="http://www.w3.org/2000/svg">
<path d="M2 39.9621C2 39.9621 5.29374 38.0031 9.29599 37.7961C15.908 37.454 26.168 42.6981 34.034 38.5941C41.9 34.4901 40.304 24.4581 40.304 24.4581M55.0986 17.4169C55.0986 17.4169 51.8049 19.3759 47.8026 19.583C41.1906 19.925 30.9306 14.6809 23.0646 18.7849C15.1986 22.8889 16.7946 32.9209 16.7946 32.9209M39.931 2C39.931 2 38.9284 3.48196 38.2536 6.33196C37.5787 9.18196 38.2536 12.1521 38.2536 12.1521M17.4336 55.4721C17.4336 55.4721 18.4362 53.9901 19.111 51.1401C19.7858 48.2901 19.111 45.32 19.111 45.32" stroke="#1F1F1F" stroke-width="3.192" stroke-linecap="round"/>
<path d="M96.1957 11.4385C97.1148 11.4385 97.8616 12.1852 97.8616 13.1043V48.8916C97.8616 49.8107 97.1148 50.5 96.1957 50.5C95.2766 50.5 94.5873 49.8107 94.5873 48.8916V33.1521H67.2442V48.8916C67.2442 49.8107 66.4975 50.5 65.5784 50.5C64.6593 50.5 63.97 49.8107 63.97 48.8916V13.1043C63.97 12.2427 64.6593 11.4385 65.5784 11.4385C66.4975 11.4385 67.2442 12.1852 67.2442 13.1043V30.0501H94.5873V13.1043C94.5873 12.2427 95.2766 11.4385 96.1957 11.4385Z" fill="#1F1F1F"/>
<path d="M117.99 22.0654C125.63 22.1229 131.777 28.614 131.777 36.4837V37.2305C131.777 38.0921 131.088 38.7815 130.283 38.7815H107.478C108.397 44.0662 112.706 48.0873 118.22 48.0873C121.207 48.0873 124.884 46.9384 128.675 44.9853C129.422 44.6407 130.341 44.9279 130.685 45.6747C131.088 46.4214 130.8 47.3405 130.054 47.6852C125.688 49.9255 121.495 51.0743 118.22 51.0743C110.236 51.0743 104.147 44.6407 104.147 36.656C104.147 28.5565 110.293 22.0654 117.99 22.0654ZM107.363 35.737H128.617C128.273 29.9352 123.677 25.1099 117.99 25.1099C112.246 25.1099 107.766 29.9352 107.363 35.737Z" fill="#1F1F1F"/>
<path d="M150.404 18.3318C149.255 18.3318 148.393 17.4127 148.393 16.2638C148.393 15.115 149.255 14.1384 150.404 14.1384C151.495 14.1384 152.414 15.115 152.414 16.2638C152.414 17.4127 151.495 18.3318 150.404 18.3318ZM150.346 50.5001C149.485 50.5001 148.795 49.8108 148.795 48.9491V24.2485C148.795 23.3868 149.485 22.64 150.346 22.64C151.208 22.64 151.955 23.3294 151.955 24.2485V48.9491C151.955 49.8108 151.208 50.5001 150.346 50.5001Z" fill="#1F1F1F"/>
<path d="M171.663 36.5988L181.083 47.9725C181.658 48.6044 181.543 49.6384 180.854 50.1554C180.566 50.3852 180.222 50.5 179.877 50.5C179.418 50.5 178.958 50.3277 178.671 49.9256L169.825 39.1263L160.978 49.9256C160.691 50.3277 160.232 50.5 159.772 50.5C159.427 50.5 159.083 50.3852 158.795 50.1554C158.106 49.6384 157.991 48.6044 158.566 47.9725L168.044 36.5988L158.566 25.225C157.991 24.5931 158.106 23.5591 158.795 23.0421C159.427 22.4677 160.461 22.5826 160.978 23.2719L169.825 34.0712L178.671 23.2719C179.188 22.5826 180.222 22.4677 180.854 23.0421C181.543 23.5591 181.658 24.5931 181.083 25.225L171.663 36.5988Z" fill="#1F1F1F"/>
<path d="M139.721 50.4999C138.859 50.4999 138.17 49.8106 138.17 48.9489V11.898C138.17 11.0363 138.859 10.2896 139.721 10.2896C140.583 10.2896 141.329 10.9789 141.329 11.898V48.9489C141.329 49.8106 140.583 50.4999 139.721 50.4999Z" fill="#1F1F1F"/>
<path d="M189.504 18.3318C188.355 18.3318 187.493 17.4127 187.493 16.2638C187.493 15.115 188.355 14.1384 189.504 14.1384C190.595 14.1384 191.514 15.115 191.514 16.2638C191.514 17.4127 190.595 18.3318 189.504 18.3318ZM189.446 50.5001C188.585 50.5001 187.896 49.8108 187.896 48.9491V24.2485C187.896 23.3868 188.585 22.64 189.446 22.64C190.308 22.64 191.055 23.3294 191.055 24.2485V48.9491C191.055 49.8108 190.308 50.5001 189.446 50.5001Z" fill="#1F1F1F"/>
<path d="M217.369 10.979C218.23 11.3236 218.633 12.1853 218.345 13.0469C218.058 13.8511 217.139 14.2533 216.335 13.966C212.888 12.7597 209.729 12.9321 207.603 14.4256C206.052 15.517 205.248 17.2403 205.248 19.2508V22.9272H212.601C213.405 22.9272 214.095 23.6165 214.095 24.4782C214.095 25.2824 213.405 25.9717 212.601 25.9717H205.248V48.9491C205.248 49.8107 204.501 50.5575 203.64 50.5575C202.778 50.5575 202.089 49.8107 202.089 48.9491V25.9717H198.815C197.953 25.9717 197.321 25.2824 197.321 24.4782C197.321 23.6165 197.953 22.9272 198.815 22.9272H202.089V19.2508C202.089 17.6999 202.376 16.3212 203.065 15C203.697 13.7363 204.616 12.7023 205.765 11.8406C207.489 10.6343 209.614 10.0024 211.969 10.0024C213.692 10.0024 215.531 10.3471 217.369 10.979Z" fill="#1F1F1F"/>
<path d="M247.745 22.6399C248.607 22.6399 249.296 23.3292 249.296 24.2483V48.0873C249.296 50.5574 248.779 52.8551 247.688 54.8656C246.596 56.8761 245.045 58.542 243.092 59.8058C240.507 61.4716 237.348 62.2758 233.901 62.2758H233.786C230.11 62.2758 226.204 61.3567 222.183 59.4611C221.436 59.1164 221.091 58.1399 221.436 57.3931C221.781 56.5889 222.757 56.2443 223.561 56.5889C227.123 58.2548 230.57 59.1164 233.844 59.1164H233.901C236.773 59.1164 239.358 58.4846 241.369 57.1634C244.471 55.2103 246.137 51.936 246.137 48.0873V45.0428C243.724 48.3745 239.875 50.4999 235.567 50.4999C228.272 50.4999 222.298 44.4109 222.298 36.8858V24.2483C222.298 23.3292 223.044 22.6399 223.906 22.6399C224.768 22.6399 225.457 23.3292 225.457 24.2483V36.8858C225.457 42.7451 230.11 47.5129 235.797 47.5129C241.541 47.5129 246.137 42.7451 246.137 36.8858V24.2483C246.137 23.3292 246.883 22.6399 247.745 22.6399Z" fill="#1F1F1F"/>
</svg>
